<?xml version="1.0" ?><!DOCTYPE svg  PUBLIC '-//W3C//DTD SVG 1.1//EN'  'http://www.w3.org/Graphics/SVG/1.1/DTD/svg11.dtd'><svg height="132px" style="enable-background:new 0 0 120 132;" version="1.1" viewBox="0 0 120 132" width="120px" xml:space="preserve" xmlns="http://www.w3.org/2000/svg" xmlns:xlink="http://www.w3.org/1999/xlink"><style type="text/css">
<![CDATA[
	.st0{fill:#EF3E42;}
	.st1{fill:#FFFFFF;}
	.st2{fill:none;}
	.st3{fill-rule:evenodd;clip-rule:evenodd;fill:#FFFFFF;}
]]>
</style><defs/><path d="M24.5,31.5c-7.7,7.7-7.7,20.2,0,27.9l8,8c-1.2,5.5-1.1,11.2,0.2,16.6c-0.9-0.7-1.7-1.4-2.5-2.2l-14-14  c-12.3-12.3-12.3-32.2,0-44.5c12.7-12.7,32.7-12.7,45-0.5c0,0,15.6,15.7,16.3,16.5c1.7,2.1,3.1,4.4,4.2,6.8  c2.3,5.2,3.2,10.8,2.6,16.4c-0.2,2-0.6,4-1.3,6c-1.5,4.7-4.1,9.1-7.8,12.8c-4.2,4.2-8.6,6.8-13.3,8.2l-4-4c-1.9-1.9-3.1-4.1-3.8-6.4  c4.5-0.4,8.8-2.3,12.2-5.7c3.9-3.9,5.8-8.2,6.2-12.7c0.2-1.8,0.1-3.6-0.3-5.3c-0.7-3.8-2.5-7.4-5.4-10.3l-14-14  c-7.7-7.7-20.2-7.7-27.9,0L24.5,31.5L24.5,31.5z M48.6,73.5c-0.2,1.8-0.1,3.6,0.3,5.3c0.7,3.8,2.5,7.4,5.4,10.3l14,14  c7.7,7.7,20.2,7.7,27.9,0c8.2-8.1,8.2-20.6,0.5-28.3l-8-8c1.2-5.5,1.1-11.2-0.2-16.6c0.9,0.7,1.7,1.4,2.5,2.2l14,14  c12.3,12.3,12.3,32.2,0,44.5c-12.7,12.7-32.7,12.7-45,0.5c0,0-15.6-15.7-16.3-16.5c-1.7-2.1-3.1-4.4-4.2-6.8  C37.2,83,36.4,77.3,37,71.8c0.2-2,0.6-4,1.3-6c1.5-4.7,4.1-9.1,7.8-12.8c4.2-4.2,8.6-6.8,13.3-8.2l4,4c1.9,1.9,3.1,4.1,3.8,6.4  c-4.5,0.4-8.8,2.3-12.2,5.7C50.9,64.7,49,69.1,48.6,73.5L48.6,73.5z"/><rect class="st2" height="132" id="_x3C_Slice_x3E__100_" width="120"/></svg>